<svg xmlns="http://www.w3.org/2000/svg" xmlns:xlink="http://www.w3.org/1999/xlink" width="600" height="282.64" viewBox="0 0 600 282.64"><defs><path id="abtua" d="M150.77 86.98L199.33.36H600l-48.2 89.83H449.88L348.7 280.28H243.67L345.61 90.96h-90.47L151.23 283 0 .36h104.17l46.6 86.62"/><path id="abtub" d="M100.14 7.1l50.5 93.91L203.3 7.1h385.42l-40.96 76.35H445.83L344.66 273.54h-89.68L356.9 84.22H251.12l-99.86 184.55L11.27 7.1h88.87"/><path id="abtuc" d="M22.52 13.85H96.1l54.42 101.17 56.73-101.17h370.2L543.72 76.7H441.78L340.61 266.78h-74.35L368.2 77.48H247.1l-95.8 177.04L22.53 13.85"/></defs><g><g transform="translate(0 -.36)"><g><g><use fill="#cf4420" xlink:href="#abtua"/></g></g><g><use fill="#fffefe" xlink:href="#abtub"/></g><g><use fill="#630031" xlink:href="#abtuc"/></g></g></g></svg>